<?xml version="1.0" encoding="utf-8"?>
<!-- Generator: Adobe Illustrator 19.0.0, SVG Export Plug-In . SVG Version: 6.00 Build 0)  -->
<svg version="1.1" id="Layer_1" xmlns="http://www.w3.org/2000/svg" xmlns:xlink="http://www.w3.org/1999/xlink" x="0px" y="0px"
	 viewBox="0 0 44.3 25.3" style="enable-background:new 0 0 44.3 25.3;" xml:space="preserve">
<style type="text/css">
	.st0{fill:#FFFFFF;}
</style>
<circle class="st0" cx="37.4" cy="15.1" r="2.9"/>
<circle class="st0" cx="40.2" cy="8.9" r="2.9"/>
<path class="st0" d="M11.3,23.1c-0.4,0.2-0.9,0.5-1.4,0.3c-0.6-0.2-0.6-1.1-0.2-1.3c9.4-5.2,19.7-3.7,25.6,0.1
	c0.1,0.1,0.7,0.7,0.3,1.1c-0.2,0.3-0.8,0.3-1.2,0C26,19,18.4,19.3,11.3,23.1z"/>
<path class="st0" d="M11.5,17.9c2.8-1.2,5.7-1.9,8.7-2.1c2.5-0.2,4.9,0,7.4,0.4c2.6,0.4,4.8,1.2,7.1,2.3c0.8,0.4,1.5,0.7,2.2,1.3
	c0.5,0.4,0.5,0.9,0.4,1.3c-0.2,0.8-1.2,0.7-1.8,0.4c-8.1-4.7-17.8-4.2-25.9,0C9.1,21.7,8.2,21.7,8,21c-0.4-1,0.4-1.6,1.2-2.1
	c0.1-0.1-0.1,0.1,0,0C10.4,18.2,10.8,18.2,11.5,17.9z"/>
<circle class="st0" cx="4.6" cy="8.9" r="2.9"/>
<circle class="st0" cx="7.6" cy="15.1" r="2.9"/>
<circle class="st0" cx="14.7" cy="12.7" r="2.9"/>
<circle class="st0" cx="13.2" cy="5.9" r="2.9"/>
<circle class="st0" cx="22.3" cy="11.4" r="2.9"/>
<circle class="st0" cx="22.3" cy="4.8" r="2.9"/>
<circle class="st0" cx="30.1" cy="12.4" r="2.9"/>
<circle class="st0" cx="31.5" cy="5.9" r="2.9"/>
</svg>
